<svg width="48" height="48" viewBox="0 0 48 48" fill="none" xmlns="http://www.w3.org/2000/svg">
<path fill-rule="evenodd" clip-rule="evenodd" d="M24 48C37.2549 48 48 37.2548 48 24C48 10.7452 37.2549 0 24 0C10.7451 0 0 10.7452 0 24C0 37.2548 10.7451 48 24 48ZM24 28C26.2092 28 28 26.2092 28 24C28 21.7908 26.2092 20 24 20C21.7908 20 20 21.7908 20 24C20 26.2092 21.7908 28 24 28ZM28 12C28 14.2092 26.2092 16 24 16C21.7908 16 20 14.2092 20 12C20 9.79083 21.7908 8 24 8C26.2092 8 28 9.79083 28 12ZM24 40C26.2092 40 28 38.2092 28 36C28 33.7908 26.2092 32 24 32C21.7908 32 20 33.7908 20 36C20 38.2092 21.7908 40 24 40Z" fill="currentColor"/>
</svg>
