<svg width="48" height="48" viewBox="0 0 48 48" fill="none" xmlns="http://www.w3.org/2000/svg">
<path d="M16.2788 5.3535C20.2965 4.27698 24.0207 4.13253 27.4516 4.92013C30.8825 5.70774 33.8003 7.33112 36.2049 9.79027C38.636 12.2035 40.3559 15.2923 41.3645 19.0566C42.3635 22.7846 42.4184 26.3195 41.5293 29.6612C40.6764 32.9932 38.9431 35.8628 36.3295 38.2701C33.7521 40.6676 30.4726 42.3998 26.4912 43.4666L16.0761 46.2573C13.9422 46.8291 11.7489 45.5628 11.1771 43.4289L3.03527 13.0432C2.46351 10.9093 3.72984 8.716 5.8637 8.14423L16.2788 5.3535ZM23.741 35.5914C27.2519 34.6506 29.7276 32.9593 31.1681 30.5172C32.6086 28.0752 32.8585 25.0987 31.9177 21.5878C30.977 18.0769 29.2675 15.6061 26.7893 14.1753C24.311 12.7445 21.3165 12.4994 17.8056 13.4402L13.4079 14.6185L19.3433 36.7697L23.741 35.5914Z" fill="currentColor"/>
</svg>
